<?xml version="1.0" encoding="UTF-8"?><svg id="Layer_2" xmlns="http://www.w3.org/2000/svg" viewBox="0 0 40 22.62"><defs><style>.cls-1{fill:#f9ff00;}</style></defs><path class="cls-1" d="M22.15,22.62h-13.72l-5.69-4.72c-1.83-1.52-2.74-2.95-2.74-4.29,0-.96.37-1.73,1.1-2.31s1.7-.87,2.9-.87,2.71.43,4.52,1.29v-.44c0-1.59.48-2.97,1.43-4.15.95-1.17,2.23-1.96,3.83-2.37L30.65.41c1.08-.28,1.97-.41,2.67-.41,1.78,0,3.34.69,4.67,2.06,1.34,1.37,2.01,2.98,2.01,4.8v11.28l-17.85,4.47ZM20.01,21.87l-8.4-6.94c-3.02-2.51-5.52-3.76-7.5-3.76-1,0-1.81.21-2.43.64-.62.42-.93.97-.93,1.65,0,1.27,1.14,2.83,3.43,4.68l4.63,3.73h11.2ZM8.91,16.37l-.53.58h-2.3l-1.75-1.47.4-.66.78.61h1.18l.49-.49,1.72,1.43ZM21.39,21.87v-10.59c0-1.7-.59-3.13-1.76-4.29-1.17-1.16-2.61-1.75-4.33-1.75s-3.09.59-4.27,1.77c-1.18,1.18-1.77,2.6-1.77,4.26v.87c.62.4,1.61,1.15,2.95,2.26l9.17,7.47ZM39.25,17.52V6.77c0-1.67-.59-3.11-1.77-4.31-1.18-1.2-2.59-1.8-4.24-1.8-.54,0-1.07.07-1.58.2l-14.8,3.82c1.71.52,3.01,1.35,3.92,2.48s1.36,2.51,1.36,4.12v10.59l17.1-4.35ZM31.69,17.95v-4.73l-8.03,2.01v-2.35l13.98-3.52v7.1l-5.95,1.49Z"/></svg>