<?xml version="1.0" encoding="UTF-8"?><svg id="Layer_2" xmlns="http://www.w3.org/2000/svg" viewBox="0 0 28.97 38.32"><defs><style>.cls-1{fill:#f9ff00;}</style></defs><path class="cls-1" d="M10.45,5.77L28.97,0v25.78c0,1.92-.24,3.37-.73,4.35s-1.32,1.78-2.49,2.42-2.49.95-3.97.95c-1.69,0-3.04-.48-4.05-1.45-1.01-.97-1.51-2.22-1.51-3.76s.6-2.89,1.79-4.01c1.19-1.12,2.74-1.69,4.63-1.69.62,0,1.17.05,1.64.16.47.11,1.24.39,2.32.84V6.75l-13.84,4.3v19.45c0,1.88-.25,3.34-.74,4.39s-1.35,1.88-2.56,2.5-2.53.93-3.96.93c-1.69,0-3.03-.48-4.01-1.43-.99-.95-1.48-2.2-1.48-3.73,0-1.63.59-3,1.77-4.11,1.18-1.11,2.72-1.66,4.63-1.66,1.21,0,2.56.36,4.05,1.07V5.77Z"/></svg>